<?xml version="1.0" encoding="utf-8"?>
<!-- Generator: Adobe Illustrator 16.0.0, SVG Export Plug-In . SVG Version: 6.00 Build 0)  -->
<!DOCTYPE svg PUBLIC "-//W3C//DTD SVG 1.1//EN" "http://www.w3.org/Graphics/SVG/1.1/DTD/svg11.dtd">
<svg version="1.1" id="Capa_1" xmlns="http://www.w3.org/2000/svg" xmlns:xlink="http://www.w3.org/1999/xlink" x="0px" y="0px"
	 width="335.789px" height="349.52px" viewBox="0 0 335.789 349.52" enable-background="new 0 0 335.789 349.52"
	 xml:space="preserve">
<g>
	<g>
		<path fill-rule="evenodd" clip-rule="evenodd" fill="#A51644" d="M0.001,179.734c0,0,3.364,11.249,29.784,13.356
			c13.553,1.727,22.203,9.856,23.651,13.59c3.305,12.926,15.098,55.67,65.293,88.229c1.737,1.127,8.887,5.139,8.887,5.139
			s-3.524,0.556-12.69,14.98c-9.929,15.626-20.879,15.618-29.559,10.322c-11.1-6.772-20.757-14.236-29.157-22.099
			C-0.952,250.871,0.001,179.734,0.001,179.734z"/>
		<g>
			<g>
				<g>
					<path fill-rule="evenodd" clip-rule="evenodd" fill="#1C808C" d="M79.206,80.64c-0.034,0.047-0.057,0.079-0.057,0.079
						S79.171,80.69,79.206,80.64z"/>
				</g>
				<g>
					<path fill-rule="evenodd" clip-rule="evenodd" fill="#1C808C" d="M194.512,1.175c0.006-0.002-17.012-2.876-42.395,0.373
						c-24.951,3.193-60.281,13.819-91.295,40.789c-3.368,2.93-1.253,13.222,9.913,22.995c9.529,8.339,8.559,14.962,8.559,14.962
						c6.133-7.208,21.156-26.574,50.003-41.108c10.019-5.062,21.574-9.402,34.745-12.172c0,0,27.113-5.929,50.241-2.04
						c1.534,0.258,6.071,1.11,7.502,1.021c2.669-0.166,5.192-1.425,8.126-4.116c3.633-3.331,5.47-7.781,13.534-7.791
						C231.356,9.456,220.664,4.373,194.512,1.175z"/>
				</g>
			</g>
		</g>
		<g>
			<path fill-rule="evenodd" clip-rule="evenodd" fill="#1C808C" d="M320.319,140.739c-12.209-61.535-66.629-80.041-68.418-80.742
				c-3.275-1.281-6.955-3.858-9.101-10.756c-1.294-4.162-1.634-7.769-4.237-10.599c-0.247-0.491,19.597,4.595,32.487,12.305
				c-13.133-14.327-34.939-21.223-38.896-22.385c1.527,0.463,3.738-3.045,8.14-6.682c5.948-4.917,15.689-1.501,20.416,1.06
				c22.368,12.117,29.305,22.732,33.944,27.998C319.243,78.847,325.747,116.723,320.319,140.739z"/>
		</g>
		<g>
			<path fill-rule="evenodd" clip-rule="evenodd" fill="#F49A2E" d="M293.448,290.197c-1.141-2.5-4.08-6.154-3.316-9.775
				c-15.976,13.998-53.107,38.797-106.27,35.206c-14.484-1.221-30.068-4.775-46.591-11.567c-5.271-1.216-11.755,8.363-15.964,16.27
				c-8.537,16.033-20.563,12.802-20.563,12.802s93.664,49.324,184.839-23.175c1.106-0.88,2.104-1.713,2.478-2.073
				C293.521,302.617,296.702,297.327,293.448,290.197z"/>
		</g>
		<path fill-rule="evenodd" clip-rule="evenodd" fill="#A51644" d="M79.187,244.123c0,0-37.695-50.343-15.229-118.244
			c5.385-16.275,14.137-33.725,28.882-49.455c5.375-5.735,11.426-11.314,18.188-16.648c7.535-5.944,16.04,4.016,16.81,4.924
			c11.77,13.911,18.74,11.887,18.74,11.887s-55.979,39.076-37.384,115.305c3.002,12.307-2.041,19.512-14.623,29.635
			C79.538,233.621,79.187,244.123,79.187,244.123z"/>
		<g>
			<path fill="#F49A2E" d="M277.042,265.965c-5.179-7.309-16.175-5.756-19.659-4.337c-35.755,14.555-66.509,10.512-94.759-3.726
				c-10.207-5.144-19.018-12.385-26.681-20.136c-14.299-14.463-20.777-30.318-20.777-30.318c0.937,2.161-0.188,10.437-11.501,18.576
				c-16.241,11.684-21.336,23.604-15.046,30.923c17.287,20.119,36.222,32.513,54.55,39.889c9.129,3.674,18.069,6.157,26.74,7.677
				c70.254,12.743,115.648-31.964,115.648-31.964S281.239,271.887,277.042,265.965z"/>
		</g>
		<g>
			<path fill="#F49A2E" d="M309.132,244.809c-6.855-5.316-11.82-10.808-25.55,0.852c-5.517,4.685-12.773,9.251-12.773,9.251
				c6.905-0.84,8.327,1.442,13.147,7.554c4.218,5.071,11.049,6.72,11.049,6.72s-1.725,6.043,3.432,15.184
				c5.325,7.777,2.93,10.246,2.93,10.246s4.508-5.301,9.853-11.473c10.799-12.47,13.63-21.983,4.511-32.224
				c7.234-7.504,12.144-15.152,14.943-22.742c0.703-1.905,13.854-35.584-4.991-34.43c0,0-6.679,0.031-10.476,8.091
				c-0.104,0.221-0.206,0.448-0.206,0.448s9.563,2.637,6.872,17.503c-2.041,10.313-7.012,18.418-12.711,25.047L309.132,244.809z"/>
		</g>
		<path fill="none" stroke="#161630" stroke-width="1.2456" stroke-miterlimit="10" d="M262.2,259.173"/>
		<path fill="#A51644" d="M52.387,49.947c0,0-34.362,31.039-46.962,81.849c-2.102,7.8-3.686,16.013-4.533,24.571
			c-1.708,17.244,7.969,24.508,26.463,27.798c18.519,3.386,22.929,8.129,23.207,9.618c0,0-11.418-54.156,21.87-104.151
			c0.483-0.726,7.155-6.04-10.332-21.182C51.404,59.189,52.387,49.947,52.387,49.947z"/>
		<g>
			<g>
				<path fill="#1C808C" d="M225.794,35.009c-15.184-3.025-42.742-8.747-81.668,6.132c-7.244,2.932-14.334,6.375-22.133,11.043
					c-0.587,0.351,6.649,0.792,14.798,10.95c4.661,5.81,11.718,10.893,21.901,5.242c2.825-1.105,33.099-22.613,80.188-12.466
					c-3.627-2.918-3.618-6.315-4.297-9.924C233.283,39.08,227.908,35.662,225.794,35.009z"/>
			</g>
		</g>
		<path fill-rule="evenodd" clip-rule="evenodd" fill="none" stroke="#161630" stroke-width="1.2456" stroke-miterlimit="10" d="
			M79.48,80.082"/>
	</g>
</g>
</svg>
